<svg width="22" height="20" viewBox="0 0 22 20" fill="none" xmlns="http://www.w3.org/2000/svg">
<path d="M14.5799 9.99998C14.5799 11.98 12.9799 13.58 10.9999 13.58C9.01992 13.58 7.41992 11.98 7.41992 9.99998C7.41992 8.01998 9.01992 6.41998 10.9999 6.41998C12.9799 6.41998 14.5799 8.01998 14.5799 9.99998Z" fill="white" stroke="white" stroke-width="1.5" stroke-linecap="round" stroke-linejoin="round"/>
<path d="M14.5799 9.99998C14.5799 11.98 12.9799 13.58 10.9999 13.58C9.01992 13.58 7.41992 11.98 7.41992 9.99998C7.41992 8.01998 9.01992 6.41998 10.9999 6.41998C12.9799 6.41998 14.5799 8.01998 14.5799 9.99998Z" fill="black" stroke="white" stroke-width="3" stroke-linecap="round" stroke-linejoin="round"/>
<path d="M10.9998 18.27C14.5298 18.27 17.8198 16.19 20.1098 12.59C21.0098 11.18 21.0098 8.80997 20.1098 7.39997C17.8198 3.79997 14.5298 1.71997 10.9998 1.71997C7.46984 1.71997 4.17984 3.79997 1.88984 7.39997C0.989844 8.80997 0.989844 11.18 1.88984 12.59C4.17984 16.19 7.46984 18.27 10.9998 18.27Z" stroke="white" stroke-width="1.5" stroke-linecap="round" stroke-linejoin="round"/>
</svg>
