<svg width="100" height="100" viewBox="0 0 100 100" fill="none" xmlns="http://www.w3.org/2000/svg">
<circle cx="50" cy="50" r="49.75" fill="black" stroke="white" stroke-width="0.5"/>
<path d="M42.3349 86.1085L39.7406 85.1651L39.5047 84.8113L39.1509 84.1038L38.2075 83.6321L38.4434 83.2783L38.0896 81.9811L37.3821 81.2736L36.9104 80.566L37.1462 79.6226L37.3821 78.5613L37.1462 77.9717L36.4387 77.6179L37.1462 77.2641L37.6179 75.7311L37.1462 73.9623L36.4387 74.434V71.8396L36.7925 70.3066L35.967 68.066H36.4387L37.3821 63.8208L37.0283 60.9906V60.5189V59.9292V59.5755L37.3821 56.2736V53.9151L37.7358 51.2028L37.3821 47.3113L35.8491 45.7783L31.7217 44.0094L30.5425 42.7123V42.0047L26.4151 35.283L25.3538 34.5755V33.9858L25 32.8066L26.1792 31.7453L26.0613 31.0377L25.3538 30.684L25.5896 28.9151L26.1792 27.6179L27.2406 26.6745L27.8302 26.0849V25.3774L28.6557 25.0236L29.4811 23.7264L29.0094 23.3726L28.8915 20.3066L29.717 19.0094L31.1321 18.066V17.7123L31.4858 17.0047L32.783 16.1792L33.9623 15.5896L35.8491 15H37.1462L37.6179 15.3538L38.6792 15.5896L39.3868 16.4151L41.2736 16.1792L42.5708 16.6509L44.9292 16.1792L45.7547 16.6509L47.2877 17.3585L48.9387 18.3019L51.4151 20.7783H54.8349L57.783 22.9009L59.434 25.4953V27.0283L61.4387 28.0896L63.2075 28.6792L66.2736 30.0943L67.0991 30.8019L70.283 31.2736L73.2311 34.1038L74.7641 34.6934L75 37.6415L70.6368 42.2406L69.9292 46.25L68.2783 50.4953L66.1557 53.2075H64.2689L63.9151 53.4434L61.6745 53.6792L59.0802 56.1557L59.434 57.6887L57.783 60.0472L55.0708 63.2311L53.4198 65L50.4717 65.4717V65.9434L50.8255 66.7689L50.4717 68.5377L45.9906 69.4811L45.7547 71.6038H43.75L43.9858 72.6651L44.3396 72.9009H44.9292V73.3726L43.75 74.434L43.5142 75.4953L42.3349 76.2028V77.3821L43.5142 77.9717V78.7972L43.0425 79.3868L42.3349 80.4481L41.2736 81.5094L41.9811 82.5708L42.6887 84.1038L44.5755 85.1651L43.75 85.5189L42.3349 86.1085Z" fill="white" stroke="white" stroke-width="0.5"/>
</svg>
